<?xml version="1.0" encoding="UTF-8" standalone="no"?>
<!-- Created with Inkscape (http://www.inkscape.org/) -->

<svg
   xmlns:dc="http://purl.org/dc/elements/1.1/"
   xmlns:cc="http://creativecommons.org/ns#"
   xmlns:rdf="http://www.w3.org/1999/02/22-rdf-syntax-ns#"
   xmlns:svg="http://www.w3.org/2000/svg"
   xmlns="http://www.w3.org/2000/svg"
   xmlns:sodipodi="http://sodipodi.sourceforge.net/DTD/sodipodi-0.dtd"
   xmlns:inkscape="http://www.inkscape.org/namespaces/inkscape"
   width="529.28094"
   height="224.80157"
   id="svg2"
   version="1.1"
   inkscape:version="0.48.4 r9939"
   sodipodi:docname="dnorm.png">
  <defs
     id="defs4">
    <clipPath
       id="clipPath3013"
       clipPathUnits="userSpaceOnUse">
      <path
         id="path3015"
         d="m 59.04,73.44 414.72,0 0,155.52 -414.72,0 0,-155.52 z"
         inkscape:connector-curvature="0" />
    </clipPath>
    <clipPath
       id="clipPath3001"
       clipPathUnits="userSpaceOnUse">
      <path
         id="path3003"
         d="m 59.04,73.44 414.72,0 0,155.52 -414.72,0 0,-155.52 z"
         inkscape:connector-curvature="0" />
    </clipPath>
  </defs>
  <sodipodi:namedview
     id="base"
     pagecolor="#ffffff"
     bordercolor="#666666"
     borderopacity="1.0"
     inkscape:pageopacity="0.0"
     inkscape:pageshadow="2"
     inkscape:zoom="0.7"
     inkscape:cx="164.46118"
     inkscape:cy="89.774446"
     inkscape:document-units="px"
     inkscape:current-layer="layer1"
     showgrid="false"
     inkscape:window-width="1366"
     inkscape:window-height="702"
     inkscape:window-x="0"
     inkscape:window-y="27"
     inkscape:window-maximized="1"
     fit-margin-top="0"
     fit-margin-left="0"
     fit-margin-right="0"
     fit-margin-bottom="0" />
  <metadata
     id="metadata7">
    <rdf:RDF>
      <cc:Work
         rdf:about="">
        <dc:format>image/svg+xml</dc:format>
        <dc:type
           rdf:resource="http://purl.org/dc/dcmitype/StillImage" />
        <dc:title></dc:title>
      </cc:Work>
    </rdf:RDF>
  </metadata>
  <g
     inkscape:label="Layer 1"
     inkscape:groupmode="layer"
     id="layer1"
     transform="translate(-134.53125,-446.59522)">
    <g
       id="g3090"
       transform="matrix(0.29658766,0,0,0.29658766,-948.43829,-167.43103)">
      <text
         id="text2171"
         y="-946.41162"
         x="-471.24011"
         style="font-size:12px;font-style:normal;font-weight:normal;fill:#000000;fill-opacity:1;stroke:none;font-family:Lello"
         xml:space="preserve"><tspan
           y="-946.41162"
           x="-471.24011"
           id="tspan2173"
           sodipodi:role="line" /></text>
    </g>
    <g
       id="g3121">
      <g
         id="g2993"
         inkscape:label="dnorm"
         transform="matrix(1.25,0,0,-1.25,42,726.06397)">
        <g
           id="g2995" />
        <g
           id="g2997">
          <g
             id="g2999"
             clip-path="url(#clipPath3001)">
            <path
               inkscape:connector-curvature="0"
               d="m 74.4,79.2 3.84,0.32 3.84,0.36 3.84,0.43 3.84,0.5 3.84,0.58 3.84,0.66 3.84,0.75 3.84,0.87 3.84,0.98 3.84,1.11 3.84,1.25 3.84,1.4 3.84,1.56 3.84,1.74 3.84,1.93 3.84,2.12 3.84,2.33 3.84,2.55 3.84,2.76 3.84,3 3.84,3.23 3.84,3.46 3.84,3.7 3.84,3.92 3.84,4.15 3.84,4.36 3.84,4.55 3.84,4.75 3.84,4.9 3.84,5.04 3.84,5.16 3.84,5.23 3.84,5.29 3.84,5.29 3.84,5.28 3.84,5.2 3.84,5.1 3.84,4.94 3.84,4.75 3.84,4.51 3.84,4.23 3.84,3.92 3.84,3.55 3.84,3.15 3.84,2.73 3.84,2.28 3.84,1.79 3.84,1.3 3.84,0.78 3.84,0.26 3.84,-0.26 3.84,-0.78 3.84,-1.3 3.84,-1.79 3.84,-2.28 3.84,-2.73 3.84,-3.15 3.84,-3.55 3.84,-3.92 3.84,-4.23 3.84,-4.51 3.84,-4.75 3.84,-4.94 3.84,-5.1 3.84,-5.2 3.84,-5.28 3.84,-5.29 3.84,-5.29 3.84,-5.23 3.84,-5.16 3.84,-5.04 3.84,-4.9 3.84,-4.75 3.84,-4.55 3.84,-4.36 3.84,-4.15 3.84,-3.92 3.84,-3.7 3.84,-3.46 3.84,-3.23 3.84,-3 3.84,-2.76 3.84,-2.55 3.84,-2.33 3.84,-2.12 3.84,-1.93 3.84,-1.74 3.84,-1.56 3.84,-1.4 3.84,-1.25 3.84,-1.11 3.84,-0.98 3.84,-0.87 3.84,-0.75 3.84,-0.66 3.84,-0.58 3.84,-0.5 3.84,-0.43 3.84,-0.36 3.84,-0.32"
               style="fill:none;stroke:#000000;stroke-width:0.75;stroke-linecap:round;stroke-linejoin:round;stroke-miterlimit:10;stroke-opacity:1;stroke-dasharray:none"
               id="path3005" />
          </g>
        </g>
        <g
           id="g3007" />
        <g
           id="g3009">
          <g
             id="g3011"
             clip-path="url(#clipPath3013)">
            <path
               inkscape:connector-curvature="0"
               d="m 266.4,77.58 0,145.62"
               style="fill:none;stroke:#000000;stroke-width:0.75;stroke-linecap:round;stroke-linejoin:round;stroke-miterlimit:10;stroke-opacity:1;stroke-dasharray:none"
               id="path3017" />
            <path
               inkscape:connector-curvature="0"
               d="m 74.4,77.58 384,0"
               style="fill:none;stroke:#000000;stroke-width:0.75;stroke-linecap:round;stroke-linejoin:round;stroke-miterlimit:10;stroke-opacity:1;stroke-dasharray:none"
               id="path3019" />
            <path
               inkscape:connector-curvature="0"
               d="m 394.4,77.58 0,19.71 3.37,-1.99 3.37,-1.84 3.37,-1.68 3.36,-1.55 3.37,-1.4 3.37,-1.28 3.37,-1.15 3.37,-1.05 3.37,-0.94 3.36,-0.84 3.37,-0.75 3.37,-0.67 3.37,-0.6 3.37,-0.53 3.37,-0.46 3.36,-0.41 3.37,-0.36 3.37,-0.32 3.37,-0.27 0,-1.62 -64,0 z"
               style="fill:#4682b4;fill-opacity:1;fill-rule:nonzero;stroke:#000000;stroke-width:0.75;stroke-linecap:round;stroke-linejoin:round;stroke-miterlimit:10;stroke-opacity:1;stroke-dasharray:none"
               id="path3021" />
          </g>
        </g>
      </g>
      <text
         sodipodi:linespacing="125%"
         id="text3101"
         y="663.07648"
         x="361.42856"
         style="font-size:40px;font-style:normal;font-weight:normal;line-height:125%;letter-spacing:0px;word-spacing:0px;fill:#000000;fill-opacity:1;stroke:none;font-family:Sans"
         xml:space="preserve"><tspan
           y="663.07648"
           x="361.42856"
           id="tspan3103"
           sodipodi:role="line">0</tspan></text>
      <text
         sodipodi:linespacing="125%"
         id="text3105"
         y="662.36224"
         x="513.57141"
         style="font-size:40px;font-style:normal;font-weight:normal;line-height:125%;letter-spacing:0px;word-spacing:0px;fill:#000000;fill-opacity:1;stroke:none;font-family:Sans"
         xml:space="preserve"><tspan
           y="662.36224"
           x="513.57141"
           id="tspan3107"
           sodipodi:role="line">z<tspan
   id="tspan3109"
   style="font-size:65.00091553%;baseline-shift:sub">0</tspan></tspan></text>
      <path
         inkscape:connector-curvature="0"
         id="path3113"
         d="m 552.14286,622.36218 c 25,-75 25,-75 25,-75"
         style="fill:none;stroke:#000000;stroke-width:1px;stroke-linecap:butt;stroke-linejoin:miter;stroke-opacity:1" />
      <text
         sodipodi:linespacing="125%"
         id="text3115"
         y="534.50507"
         x="510.71429"
         style="font-size:40px;font-style:normal;font-weight:normal;line-height:125%;letter-spacing:0px;word-spacing:0px;fill:#000000;fill-opacity:1;stroke:none;font-family:Sans"
         xml:space="preserve"><tspan
           y="534.50507"
           x="510.71429"
           id="tspan3117"
           sodipodi:role="line">P(Z&gt;z<tspan
   id="tspan3119"
   style="font-size:65.00091553%;baseline-shift:sub">0</tspan>)</tspan></text>
    </g>
  </g>
</svg>
